<svg width="771.2300292968749px" height="99.2199951171875px" xmlns="http://www.w3.org/2000/svg" viewBox="-135.61501464843747 25.390002441406253 771.2300292968749 99.2199951171875" style="background: rgb(0, 0, 0);" preserveAspectRatio="xMidYMid"><defs><filter id="editing-hover" x="-100%" y="-100%" width="300%" height="300%"><feFlood flood-color="#000000" result="flood"></feFlood><feComposite operator="in" in2="SourceAlpha" in="flood" result="shadow"></feComposite><feOffset dx="-1.9" dy="-1.3" in="SourceGraphic" result="offset-1"></feOffset><feOffset dx="1.9" dy="1.3" in="shadow" result="offset-2"></feOffset><feMerge><feMergeNode in="offset-2"></feMergeNode><feMergeNode in="offset-1"></feMergeNode></feMerge></filter></defs><g filter="url(#editing-hover)"><g transform="translate(-26.185014724731445, 94.19499969482422)"><path d="M1.92-11.23L1.92-16.17L28.13-27.40L28.13-22.52L7.10-13.69L28.13-4.90L28.13 0L1.92-11.23ZM38.30 2.39L33.89 2.39L46.62-36L51.26-36L38.30 2.39ZM54.61-28.80L54.61-33.61L81.49-33.61L81.49-28.80L70.45-28.80L70.45 0L65.65 0L65.65-28.80L54.61-28.80ZM108.87-20.34L108.87 0L104.25 0L104.25-20.34L91.38-20.34L91.38 0L86.79 0L86.79-34.57L91.38-34.57L91.38-20.55L91.38-20.55Q91.43-21.47 91.80-22.28L91.80-22.28L91.80-22.28Q92.18-23.09 92.80-23.68L92.80-23.68L92.80-23.68Q93.42-24.28 94.24-24.62L94.24-24.62L94.24-24.62Q95.06-24.96 96-24.96L96-24.96L104.25-24.96L104.25-24.96Q105.21-24.96 106.05-24.60L106.05-24.60L106.05-24.60Q106.90-24.23 107.52-23.61L107.52-23.61L107.52-23.61Q108.14-22.99 108.50-22.15L108.50-22.15L108.50-22.15Q108.87-21.30 108.87-20.34L108.87-20.34ZM116.55-4.62L116.55-24.96L121.15-24.96L121.15-4.62L134.02-4.62L134.02-24.96L138.63-24.96L138.63 0L134.02 0L134.02-4.22L134.02-4.22Q133.95-3.35 133.55-2.58L133.55-2.58L133.55-2.58Q133.15-1.80 132.53-1.23L132.53-1.23L132.53-1.23Q131.91-0.66 131.11-0.33L131.11-0.33L131.11-0.33Q130.31 0 129.42 0L129.42 0L121.15 0L121.15 0Q120.21 0 119.37-0.36L119.37-0.36L119.37-0.36Q118.52-0.73 117.90-1.35L117.90-1.35L117.90-1.35Q117.28-1.97 116.92-2.81L116.92-2.81L116.92-2.81Q116.55-3.66 116.55-4.62L116.55-4.62ZM145.83-4.62L161.39-4.62L161.39-10.41L150.45-10.41L150.45-10.41Q149.48-10.41 148.64-10.77L148.64-10.77L148.64-10.77Q147.80-11.13 147.18-11.75L147.18-11.75L147.18-11.75Q146.55-12.38 146.19-13.22L146.19-13.22L146.19-13.22Q145.83-14.06 145.83-15.02L145.83-15.02L145.83-20.34L145.83-20.34Q145.83-21.30 146.19-22.15L146.19-22.15L146.19-22.15Q146.55-22.99 147.18-23.61L147.18-23.61L147.18-23.61Q147.80-24.23 148.64-24.60L148.64-24.60L148.64-24.60Q149.48-24.96 150.45-24.96L150.45-24.96L165.05-24.96L165.05-20.34L150.45-20.34L150.45-15.02L161.39-15.02L161.39-15.02Q162.35-15.02 163.18-14.66L163.18-14.66L163.18-14.66Q164.02-14.30 164.65-13.68L164.65-13.68L164.65-13.68Q165.28-13.05 165.64-12.21L165.64-12.21L165.64-12.21Q166.01-11.37 166.01-10.41L166.01-10.41L166.01-4.62L166.01-4.62Q166.01-3.66 165.64-2.81L165.64-2.81L165.64-2.81Q165.28-1.97 164.65-1.35L164.65-1.35L164.65-1.35Q164.02-0.73 163.18-0.36L163.18-0.36L163.18-0.36Q162.35 0 161.39 0L161.39 0L145.83 0L145.83-4.62ZM195.28-20.34L195.28 0L190.66 0L190.66-20.34L177.80-20.34L177.80 0L173.20 0L173.20-34.57L177.80-34.57L177.80-20.55L177.80-20.55Q177.84-21.47 178.22-22.28L178.22-22.28L178.22-22.28Q178.59-23.09 179.21-23.68L179.21-23.68L179.21-23.68Q179.84-24.28 180.66-24.62L180.66-24.62L180.66-24.62Q181.48-24.96 182.41-24.96L182.41-24.96L190.66-24.96L190.66-24.96Q191.63-24.96 192.47-24.60L192.47-24.60L192.47-24.60Q193.31-24.23 193.93-23.61L193.93-23.61L193.93-23.61Q194.55-22.99 194.92-22.15L194.92-22.15L194.92-22.15Q195.28-21.30 195.28-20.34L195.28-20.34ZM202.97-4.62L202.97-10.90L202.97-10.90Q202.97-11.86 203.33-12.69L203.33-12.69L203.33-12.69Q203.70-13.52 204.32-14.16L204.32-14.16L204.32-14.16Q204.94-14.79 205.78-15.15L205.78-15.15L205.78-15.15Q206.63-15.52 207.56-15.52L207.56-15.52L219.47-15.52L219.47-20.34L204.40-20.34L204.40-24.96L219.47-24.96L219.47-24.96Q220.43-24.96 221.27-24.60L221.27-24.60L221.27-24.60Q222.12-24.23 222.74-23.61L222.74-23.61L222.74-23.61Q223.36-22.99 223.72-22.15L223.72-22.15L223.72-22.15Q224.09-21.30 224.09-20.34L224.09-20.34L224.09 0L219.47 0L219.47-4.22L219.47-4.22Q219.40-3.35 219-2.58L219-2.58L219-2.58Q218.60-1.80 217.98-1.23L217.98-1.23L217.98-1.23Q217.36-0.66 216.56-0.33L216.56-0.33L216.56-0.33Q215.77 0 214.88 0L214.88 0L207.56 0L207.56 0Q206.63 0 205.78-0.36L205.78-0.36L205.78-0.36Q204.94-0.73 204.32-1.35L204.32-1.35L204.32-1.35Q203.70-1.97 203.33-2.81L203.33-2.81L203.33-2.81Q202.97-3.66 202.97-4.62L202.97-4.62ZM207.56-10.90L207.56-4.62L219.47-4.62L219.47-10.90L207.56-10.90ZM245.88-20.34L236.37-20.34L236.37 0L231.77 0L231.77-24.96L236.37-24.96L236.37-20.55L236.37-20.55Q236.41-21.47 236.79-22.28L236.79-22.28L236.79-22.28Q237.16-23.09 237.79-23.68L237.79-23.68L237.79-23.68Q238.41-24.28 239.23-24.62L239.23-24.62L239.23-24.62Q240.05-24.96 240.98-24.96L240.98-24.96L245.88-24.96L245.88-24.96Q246.84-24.96 247.68-24.60L247.68-24.60L247.68-24.60Q248.51-24.23 249.14-23.61L249.14-23.61L249.14-23.61Q249.77-22.99 250.14-22.15L250.14-22.15L250.14-22.15Q250.50-21.30 250.50-20.34L250.50-20.34L250.50-16.13L245.88-16.13L245.88-20.34ZM256.24-4.62L256.24-10.90L256.24-10.90Q256.24-11.86 256.61-12.69L256.61-12.69L256.61-12.69Q256.97-13.52 257.59-14.16L257.59-14.16L257.59-14.16Q258.21-14.79 259.05-15.15L259.05-15.15L259.05-15.15Q259.90-15.52 260.84-15.52L260.84-15.52L272.74-15.52L272.74-20.34L257.67-20.34L257.67-24.96L272.74-24.96L272.74-24.96Q273.70-24.96 274.55-24.60L274.55-24.60L274.55-24.60Q275.39-24.23 276.01-23.61L276.01-23.61L276.01-23.61Q276.63-22.99 277.00-22.15L277.00-22.15L277.00-22.15Q277.36-21.30 277.36-20.34L277.36-20.34L277.36 0L272.74 0L272.74-4.22L272.74-4.22Q272.67-3.35 272.27-2.58L272.27-2.58L272.27-2.58Q271.88-1.80 271.25-1.23L271.25-1.23L271.25-1.23Q270.63-0.66 269.84-0.33L269.84-0.33L269.84-0.33Q269.04 0 268.15 0L268.15 0L260.84 0L260.84 0Q259.90 0 259.05-0.36L259.05-0.36L259.05-0.36Q258.21-0.73 257.59-1.35L257.59-1.35L257.59-1.35Q256.97-1.97 256.61-2.81L256.61-2.81L256.61-2.81Q256.24-3.66 256.24-4.62L256.24-4.62ZM260.84-10.90L260.84-4.62L272.74-4.62L272.74-10.90L260.84-10.90ZM297.02-28.80L297.02-33.61L323.91-33.61L323.91-28.80L312.87-28.80L312.87 0L308.06 0L308.06-28.80L297.02-28.80ZM351.28-20.34L351.28 0L346.66 0L346.66-20.34L333.80-20.34L333.80 0L329.20 0L329.20-34.57L333.80-34.57L333.80-20.55L333.80-20.55Q333.84-21.47 334.22-22.28L334.22-22.28L334.22-22.28Q334.59-23.09 335.21-23.68L335.21-23.68L335.21-23.68Q335.84-24.28 336.66-24.62L336.66-24.62L336.66-24.62Q337.48-24.96 338.41-24.96L338.41-24.96L346.66-24.96L346.66-24.96Q347.63-24.96 348.47-24.60L348.47-24.60L348.47-24.60Q349.31-24.23 349.93-23.61L349.93-23.61L349.93-23.61Q350.55-22.99 350.92-22.15L350.92-22.15L350.92-22.15Q351.28-21.30 351.28-20.34L351.28-20.34ZM359.20-24.96L363.82-24.96L363.82 0L359.20 0L359.20-24.96ZM358.97-29.77L358.97-34.57L364.05-34.57L364.05-29.77L358.97-29.77ZM381.73 0L376.92 0L368.86-24.96L373.52-24.96L379.43-6.14L384.94-24.96L389.65-24.96L395.16-6.14L401.06-24.96L405.73-24.96L397.66 0L392.86 0L387.28-18.33L381.73 0ZM410.53-4.62L410.53-10.90L410.53-10.90Q410.53-11.86 410.89-12.69L410.89-12.69L410.89-12.69Q411.26-13.52 411.88-14.16L411.88-14.16L411.88-14.16Q412.50-14.79 413.34-15.15L413.34-15.15L413.34-15.15Q414.19-15.52 415.13-15.52L415.13-15.52L427.03-15.52L427.03-20.34L411.96-20.34L411.96-24.96L427.03-24.96L427.03-24.96Q427.99-24.96 428.84-24.60L428.84-24.60L428.84-24.60Q429.68-24.23 430.30-23.61L430.30-23.61L430.30-23.61Q430.92-22.99 431.29-22.15L431.29-22.15L431.29-22.15Q431.65-21.30 431.65-20.34L431.65-20.34L431.65 0L427.03 0L427.03-4.22L427.03-4.22Q426.96-3.35 426.56-2.58L426.56-2.58L426.56-2.58Q426.16-1.80 425.54-1.23L425.54-1.23L425.54-1.23Q424.92-0.66 424.13-0.33L424.13-0.33L424.13-0.33Q423.33 0 422.44 0L422.44 0L415.13 0L415.13 0Q414.19 0 413.34-0.36L413.34-0.36L413.34-0.36Q412.50-0.73 411.88-1.35L411.88-1.35L411.88-1.35Q411.26-1.97 410.89-2.81L410.89-2.81L410.89-2.81Q410.53-3.66 410.53-4.62L410.53-4.62ZM415.13-10.90L415.13-4.62L427.03-4.62L427.03-10.90L415.13-10.90ZM461.41-20.34L461.41 0L456.80 0L456.80-20.34L443.93-20.34L443.93 0L439.34 0L439.34-24.96L443.93-24.96L443.93-20.55L443.93-20.55Q443.98-21.47 444.35-22.28L444.35-22.28L444.35-22.28Q444.73-23.09 445.35-23.68L445.35-23.68L445.35-23.68Q445.97-24.28 446.79-24.62L446.79-24.62L446.79-24.62Q447.61-24.96 448.55-24.96L448.55-24.96L456.80-24.96L456.80-24.96Q457.76-24.96 458.60-24.60L458.60-24.60L458.60-24.60Q459.45-24.23 460.07-23.61L460.07-23.61L460.07-23.61Q460.69-22.99 461.05-22.15L461.05-22.15L461.05-22.15Q461.41-21.30 461.41-20.34L461.41-20.34ZM492.09 0L485.60 0L473.70-10.66L473.70 0L469.10 0L469.10-34.57L473.70-34.57L473.70-15.12L484.64-24.96L491.13-24.96L477.73-12.91L492.09 0ZM495.45-4.62L495.45-10.90L495.45-10.90Q495.45-11.86 495.81-12.69L495.81-12.69L495.81-12.69Q496.17-13.52 496.79-14.16L496.79-14.16L496.79-14.16Q497.41-14.79 498.26-15.15L498.26-15.15L498.26-15.15Q499.10-15.52 500.04-15.52L500.04-15.52L511.95-15.52L511.95-20.34L496.88-20.34L496.88-24.96L511.95-24.96L511.95-24.96Q512.91-24.96 513.75-24.60L513.75-24.60L513.75-24.60Q514.59-24.23 515.21-23.61L515.21-23.61L515.21-23.61Q515.84-22.99 516.20-22.15L516.20-22.15L516.20-22.15Q516.56-21.30 516.56-20.34L516.56-20.34L516.56 0L511.95 0L511.95-4.22L511.95-4.22Q511.88-3.35 511.48-2.58L511.48-2.58L511.48-2.58Q511.08-1.80 510.46-1.23L510.46-1.23L510.46-1.23Q509.84-0.66 509.04-0.33L509.04-0.33L509.04-0.33Q508.24 0 507.35 0L507.35 0L500.04 0L500.04 0Q499.10 0 498.26-0.36L498.26-0.36L498.26-0.36Q497.41-0.73 496.79-1.35L496.79-1.35L496.79-1.35Q496.17-1.97 495.81-2.81L495.81-2.81L495.81-2.81Q495.45-3.66 495.45-4.62L495.45-4.62ZM500.04-10.90L500.04-4.62L511.95-4.62L511.95-10.90L500.04-10.90ZM550.45-16.17L550.45-11.23L524.25 0L524.25-4.90L545.23-13.69L524.25-22.52L524.25-27.40L550.45-16.17Z" fill="#00ff1c"></path></g></g><style>text {
  font-size: 64px;
  font-family: Arial Black;
  dominant-baseline: central;
  text-anchor: middle;
}</style></svg>