<svg width="655.46005859375px" height="99.2199951171875px" xmlns="http://www.w3.org/2000/svg" viewBox="-77.73002929687499 25.390002441406253 655.46005859375 99.2199951171875" style="background:#596886" preserveAspectRatio="xMidYMid"><defs><filter id="editing-hover" x="-100%" y="-100%" width="300%" height="300%"><feFlood flood-color="#052b4a" result="flood"></feFlood><feComposite operator="in" in2="SourceAlpha" in="flood" result="shadow"></feComposite><feOffset dx="-1.9" dy="-1.3" in="SourceGraphic" result="offset-1"></feOffset><feOffset dx="1.9" dy="1.3" in="shadow" result="offset-2"></feOffset><feMerge><feMergeNode in="offset-2"></feMergeNode><feMergeNode in="offset-1"></feMergeNode></feMerge></filter></defs><g filter="url(#editing-hover)"><g transform="translate(17.594993829727173, 92.28499984741211)"><path d="M1.43-28.80L1.43-33.61L28.31-33.61L28.31-28.80L17.27-28.80L17.27 0L12.47 0L12.47-28.80L1.43-28.80ZM55.69-20.34L55.69 0L51.07 0L51.07-20.34L38.20-20.34L38.20 0L33.61 0L33.61-34.57L38.20-34.57L38.20-20.55L38.20-20.55Q38.25-21.47 38.63-22.28L38.63-22.28L38.63-22.28Q39-23.09 39.62-23.68L39.62-23.68L39.62-23.68Q40.24-24.28 41.06-24.62L41.06-24.62L41.06-24.62Q41.88-24.96 42.82-24.96L42.82-24.96L51.07-24.96L51.07-24.96Q52.03-24.96 52.88-24.60L52.88-24.60L52.88-24.60Q53.72-24.23 54.34-23.61L54.34-23.61L54.34-23.61Q54.96-22.99 55.32-22.15L55.32-22.15L55.32-22.15Q55.69-21.30 55.69-20.34L55.69-20.34ZM63.38-4.62L63.38-24.96L67.97-24.96L67.97-4.62L80.84-4.62L80.84-24.96L85.45-24.96L85.45 0L80.84 0L80.84-4.22L80.84-4.22Q80.77-3.35 80.37-2.58L80.37-2.58L80.37-2.58Q79.97-1.80 79.35-1.23L79.35-1.23L79.35-1.23Q78.73-0.66 77.93-0.33L77.93-0.33L77.93-0.33Q77.13 0 76.24 0L76.24 0L67.97 0L67.97 0Q67.03 0 66.19-0.36L66.19-0.36L66.19-0.36Q65.34-0.73 64.72-1.35L64.72-1.35L64.72-1.35Q64.10-1.97 63.74-2.81L63.74-2.81L63.74-2.81Q63.38-3.66 63.38-4.62L63.38-4.62ZM92.65-4.62L108.21-4.62L108.21-10.41L97.27-10.41L97.27-10.41Q96.30-10.41 95.46-10.77L95.46-10.77L95.46-10.77Q94.62-11.13 94.00-11.75L94.00-11.75L94.00-11.75Q93.38-12.38 93.01-13.22L93.01-13.22L93.01-13.22Q92.65-14.06 92.65-15.02L92.65-15.02L92.65-20.34L92.65-20.34Q92.65-21.30 93.01-22.15L93.01-22.15L93.01-22.15Q93.38-22.99 94.00-23.61L94.00-23.61L94.00-23.61Q94.62-24.23 95.46-24.60L95.46-24.60L95.46-24.60Q96.30-24.96 97.27-24.96L97.27-24.96L111.87-24.96L111.87-20.34L97.27-20.34L97.27-15.02L108.21-15.02L108.21-15.02Q109.17-15.02 110.00-14.66L110.00-14.66L110.00-14.66Q110.84-14.30 111.47-13.68L111.47-13.68L111.47-13.68Q112.10-13.05 112.46-12.21L112.46-12.21L112.46-12.21Q112.83-11.37 112.83-10.41L112.83-10.41L112.83-4.62L112.83-4.62Q112.83-3.66 112.46-2.81L112.46-2.81L112.46-2.81Q112.10-1.97 111.47-1.35L111.47-1.35L111.47-1.35Q110.84-0.73 110.00-0.36L110.00-0.36L110.00-0.36Q109.17 0 108.21 0L108.21 0L92.65 0L92.65-4.62ZM142.10-20.34L142.10 0L137.48 0L137.48-20.34L124.62-20.34L124.62 0L120.02 0L120.02-34.57L124.62-34.57L124.62-20.55L124.62-20.55Q124.66-21.47 125.04-22.28L125.04-22.28L125.04-22.28Q125.41-23.09 126.04-23.68L126.04-23.68L126.04-23.68Q126.66-24.28 127.48-24.62L127.48-24.62L127.48-24.62Q128.30-24.96 129.23-24.96L129.23-24.96L137.48-24.96L137.48-24.96Q138.45-24.96 139.29-24.60L139.29-24.60L139.29-24.60Q140.13-24.23 140.75-23.61L140.75-23.61L140.75-23.61Q141.38-22.99 141.74-22.15L141.74-22.15L141.74-22.15Q142.10-21.30 142.10-20.34L142.10-20.34ZM149.79-4.62L149.79-10.90L149.79-10.90Q149.79-11.86 150.15-12.69L150.15-12.69L150.15-12.69Q150.52-13.52 151.14-14.16L151.14-14.16L151.14-14.16Q151.76-14.79 152.60-15.15L152.60-15.15L152.60-15.15Q153.45-15.52 154.38-15.52L154.38-15.52L166.29-15.52L166.29-20.34L151.22-20.34L151.22-24.96L166.29-24.96L166.29-24.96Q167.25-24.96 168.09-24.60L168.09-24.60L168.09-24.60Q168.94-24.23 169.56-23.61L169.56-23.61L169.56-23.61Q170.18-22.99 170.54-22.15L170.54-22.15L170.54-22.15Q170.91-21.30 170.91-20.34L170.91-20.34L170.91 0L166.29 0L166.29-4.22L166.29-4.22Q166.22-3.35 165.82-2.58L165.82-2.58L165.82-2.58Q165.42-1.80 164.80-1.23L164.80-1.23L164.80-1.23Q164.18-0.66 163.38-0.33L163.38-0.33L163.38-0.33Q162.59 0 161.70 0L161.70 0L154.38 0L154.38 0Q153.45 0 152.60-0.36L152.60-0.36L152.60-0.36Q151.76-0.73 151.14-1.35L151.14-1.35L151.14-1.35Q150.52-1.97 150.15-2.81L150.15-2.81L150.15-2.81Q149.79-3.66 149.79-4.62L149.79-4.62ZM154.38-10.90L154.38-4.62L166.29-4.62L166.29-10.90L154.38-10.90ZM192.70-20.34L183.19-20.34L183.19 0L178.59 0L178.59-24.96L183.19-24.96L183.19-20.55L183.19-20.55Q183.23-21.47 183.61-22.28L183.61-22.28L183.61-22.28Q183.98-23.09 184.61-23.68L184.61-23.68L184.61-23.68Q185.23-24.28 186.05-24.62L186.05-24.62L186.05-24.62Q186.87-24.96 187.80-24.96L187.80-24.96L192.70-24.96L192.70-24.96Q193.66-24.96 194.50-24.60L194.50-24.60L194.50-24.60Q195.33-24.23 195.96-23.61L195.96-23.61L195.96-23.61Q196.59-22.99 196.96-22.15L196.96-22.15L196.96-22.15Q197.32-21.30 197.32-20.34L197.32-20.34L197.32-16.13L192.70-16.13L192.70-20.34ZM203.06-4.62L203.06-10.90L203.06-10.90Q203.06-11.86 203.43-12.69L203.43-12.69L203.43-12.69Q203.79-13.52 204.41-14.16L204.41-14.16L204.41-14.16Q205.03-14.79 205.88-15.15L205.88-15.15L205.88-15.15Q206.72-15.52 207.66-15.52L207.66-15.52L219.56-15.52L219.56-20.34L204.49-20.34L204.49-24.96L219.56-24.96L219.56-24.96Q220.52-24.96 221.37-24.60L221.37-24.60L221.37-24.60Q222.21-24.23 222.83-23.61L222.83-23.61L222.83-23.61Q223.45-22.99 223.82-22.15L223.82-22.15L223.82-22.15Q224.18-21.30 224.18-20.34L224.18-20.34L224.18 0L219.56 0L219.56-4.22L219.56-4.22Q219.49-3.35 219.09-2.58L219.09-2.58L219.09-2.58Q218.70-1.80 218.07-1.23L218.07-1.23L218.07-1.23Q217.45-0.66 216.66-0.33L216.66-0.33L216.66-0.33Q215.86 0 214.97 0L214.97 0L207.66 0L207.66 0Q206.72 0 205.88-0.36L205.88-0.36L205.88-0.36Q205.03-0.73 204.41-1.35L204.41-1.35L204.41-1.35Q203.79-1.97 203.43-2.81L203.43-2.81L203.43-2.81Q203.06-3.66 203.06-4.62L203.06-4.62ZM207.66-10.90L207.66-4.62L219.56-4.62L219.56-10.90L207.66-10.90ZM243.84-28.80L243.84-33.61L270.73-33.61L270.73-28.80L259.69-28.80L259.69 0L254.88 0L254.88-28.80L243.84-28.80ZM298.10-20.34L298.10 0L293.48 0L293.48-20.34L280.62-20.34L280.62 0L276.02 0L276.02-34.57L280.62-34.57L280.62-20.55L280.62-20.55Q280.66-21.47 281.04-22.28L281.04-22.28L281.04-22.28Q281.41-23.09 282.04-23.68L282.04-23.68L282.04-23.68Q282.66-24.28 283.48-24.62L283.48-24.62L283.48-24.62Q284.30-24.96 285.23-24.96L285.23-24.96L293.48-24.96L293.48-24.96Q294.45-24.96 295.29-24.60L295.29-24.60L295.29-24.60Q296.13-24.23 296.75-23.61L296.75-23.61L296.75-23.61Q297.38-22.99 297.74-22.15L297.74-22.15L297.74-22.15Q298.10-21.30 298.10-20.34L298.10-20.34ZM306.02-24.96L310.64-24.96L310.64 0L306.02 0L306.02-24.96ZM305.79-29.77L305.79-34.57L310.88-34.57L310.88-29.77L305.79-29.77ZM328.55 0L323.74 0L315.68-24.96L320.34-24.96L326.25-6.14L331.76-24.96L336.47-24.96L341.98-6.14L347.88-24.96L352.55-24.96L344.48 0L339.68 0L334.10-18.33L328.55 0ZM357.35-4.62L357.35-10.90L357.35-10.90Q357.35-11.86 357.71-12.69L357.71-12.69L357.71-12.69Q358.08-13.52 358.70-14.16L358.70-14.16L358.70-14.16Q359.32-14.79 360.16-15.15L360.16-15.15L360.16-15.15Q361.01-15.52 361.95-15.52L361.95-15.52L373.85-15.52L373.85-20.34L358.78-20.34L358.78-24.96L373.85-24.96L373.85-24.96Q374.81-24.96 375.66-24.60L375.66-24.60L375.66-24.60Q376.50-24.23 377.12-23.61L377.12-23.61L377.12-23.61Q377.74-22.99 378.11-22.15L378.11-22.15L378.11-22.15Q378.47-21.30 378.47-20.34L378.47-20.34L378.47 0L373.85 0L373.85-4.22L373.85-4.22Q373.78-3.35 373.38-2.58L373.38-2.58L373.38-2.58Q372.98-1.80 372.36-1.23L372.36-1.23L372.36-1.23Q371.74-0.66 370.95-0.33L370.95-0.33L370.95-0.33Q370.15 0 369.26 0L369.26 0L361.95 0L361.95 0Q361.01 0 360.16-0.36L360.16-0.36L360.16-0.36Q359.32-0.73 358.70-1.35L358.70-1.35L358.70-1.35Q358.08-1.97 357.71-2.81L357.71-2.81L357.71-2.81Q357.35-3.66 357.35-4.62L357.35-4.62ZM361.95-10.90L361.95-4.62L373.85-4.62L373.85-10.90L361.95-10.90ZM408.23-20.34L408.23 0L403.62 0L403.62-20.34L390.75-20.34L390.75 0L386.16 0L386.16-24.96L390.75-24.96L390.75-20.55L390.75-20.55Q390.80-21.47 391.17-22.28L391.17-22.28L391.17-22.28Q391.55-23.09 392.17-23.68L392.17-23.68L392.17-23.68Q392.79-24.28 393.61-24.62L393.61-24.62L393.61-24.62Q394.43-24.96 395.37-24.96L395.37-24.96L403.62-24.96L403.62-24.96Q404.58-24.96 405.42-24.60L405.42-24.60L405.42-24.60Q406.27-24.23 406.89-23.61L406.89-23.61L406.89-23.61Q407.51-22.99 407.87-22.15L407.87-22.15L407.87-22.15Q408.23-21.30 408.23-20.34L408.23-20.34ZM438.91 0L432.42 0L420.52-10.66L420.52 0L415.92 0L415.92-34.57L420.52-34.57L420.52-15.12L431.46-24.96L437.95-24.96L424.55-12.91L438.91 0ZM442.27-4.62L442.27-10.90L442.27-10.90Q442.27-11.86 442.63-12.69L442.63-12.69L442.63-12.69Q442.99-13.52 443.61-14.16L443.61-14.16L443.61-14.16Q444.23-14.79 445.08-15.15L445.08-15.15L445.08-15.15Q445.92-15.52 446.86-15.52L446.86-15.52L458.77-15.52L458.77-20.34L443.70-20.34L443.70-24.96L458.77-24.96L458.77-24.96Q459.73-24.96 460.57-24.60L460.57-24.60L460.57-24.60Q461.41-24.23 462.04-23.61L462.04-23.61L462.04-23.61Q462.66-22.99 463.02-22.15L463.02-22.15L463.02-22.15Q463.38-21.30 463.38-20.34L463.38-20.34L463.38 0L458.77 0L458.77-4.22L458.77-4.22Q458.70-3.35 458.30-2.58L458.30-2.58L458.30-2.58Q457.90-1.80 457.28-1.23L457.28-1.23L457.28-1.23Q456.66-0.66 455.86-0.33L455.86-0.33L455.86-0.33Q455.06 0 454.17 0L454.17 0L446.86 0L446.86 0Q445.92 0 445.08-0.36L445.08-0.36L445.08-0.36Q444.23-0.73 443.61-1.35L443.61-1.35L443.61-1.35Q442.99-1.97 442.63-2.81L442.63-2.81L442.63-2.81Q442.27-3.66 442.27-4.62L442.27-4.62ZM446.86-10.90L446.86-4.62L458.77-4.62L458.77-10.90L446.86-10.90Z" fill="#ffd5af"></path></g></g><style>text {
  font-size: 64px;
  font-family: Arial Black;
  dominant-baseline: central;
  text-anchor: middle;
}</style></svg>